<svg width="19" height="21" viewBox="0 0 19 21" fill="none" xmlns="http://www.w3.org/2000/svg">
<path fill-rule="evenodd" clip-rule="evenodd" d="M14.7083 2.38574V3.70679H16.7089H16.7105V3.7102C17.3424 3.71191 17.9152 3.97852 18.3288 4.41089C18.7391 4.83984 18.9951 5.43286 18.9967 6.08911H19V6.09253V18.6143V18.616H18.9967C18.9951 19.2722 18.7391 19.8687 18.3238 20.301C17.9119 20.7283 17.3424 20.9949 16.7122 20.9966V21H16.7089H6.58279H6.58115V20.9966C5.95094 20.9949 5.37652 20.7283 4.96294 20.2959C4.55265 19.8669 4.29662 19.2739 4.29498 18.6177H4.2917V18.6143V15.8098H2.29109H2.28945V15.8064C1.65924 15.8047 1.08482 15.5381 0.671245 15.1057C0.260948 14.6768 0.00492356 14.0837 0.00328237 13.4275H0V13.4241V2.38574V2.38403H0.00328237C0.00492356 1.72607 0.26259 1.12964 0.676168 0.698975C1.08811 0.271729 1.6576 0.00512695 2.28781 0.00341797V0H2.29109H12.4172H12.4188V0.00341797C13.0507 0.00512695 13.6235 0.271729 14.0371 0.704102C14.4474 1.13306 14.7034 1.72607 14.705 2.38232H14.7083V2.38574ZM12.9719 3.70679V2.38574V2.38232H12.9752C12.9752 2.22681 12.9112 2.08325 12.8095 1.97729C12.7093 1.87305 12.5698 1.8064 12.4205 1.8064V1.80981H12.4188H2.29274H2.28945V1.8064C2.14011 1.8064 2.00225 1.87305 1.90049 1.979C1.80038 2.08325 1.73637 2.22852 1.73637 2.38403H1.73966V2.38574V13.4241V13.4275H1.73637C1.73637 13.583 1.80038 13.7266 1.90213 13.8325C2.00225 13.9368 2.14175 14.0034 2.29109 14.0034V14H2.29274H4.29334V6.09253V6.09082H4.29662C4.29826 5.43286 4.55593 4.83643 4.96951 4.40576C5.38145 3.97852 5.95094 3.71191 6.58115 3.7102V3.70679H6.58443H12.9719ZM17.262 18.6143V6.09253V6.08911H17.2653C17.2653 5.93359 17.2013 5.79004 17.0995 5.68408C16.9994 5.57983 16.8599 5.51318 16.7105 5.51318V5.5166H16.7089H6.58279H6.57951V5.51318C6.43016 5.51318 6.2923 5.57983 6.19055 5.68579C6.09044 5.79004 6.02643 5.9353 6.02643 6.09082H6.02971V6.09253V18.6143V18.6177H6.02643C6.02643 18.7732 6.09044 18.9167 6.19219 19.0227C6.2923 19.127 6.4318 19.1936 6.58115 19.1936V19.1902H6.58279H16.7089H16.7122V19.1936C16.8615 19.1936 16.9994 19.127 17.1011 19.021C17.2013 18.9167 17.2653 18.7715 17.2653 18.616H17.262V18.6143Z" fill="white" fill-opacity="0.5"/>
</svg>
