<svg width="15" height="15" viewBox="0 0 15 15" fill="none" xmlns="http://www.w3.org/2000/svg">
<g clip-path="url(#clip0_2_117)">
<path d="M0 0V6.84782H6.84782V0H0ZM5.86957 5.86957H0.978252V0.978252H5.86957V5.86957Z" fill="white"/>
<path d="M4.89133 1.95654H1.95654V4.89133H4.89133V1.95654Z" fill="white"/>
<path d="M8.15222 0V6.84782H15V0H8.15222ZM14.0218 5.86957H9.13047V0.978252H14.0218V5.86957Z" fill="white"/>
<path d="M13.0434 1.95654H10.1086V4.89133H13.0434V1.95654Z" fill="white"/>
<path d="M0 8.1521V14.9999H6.84782V8.1521H0ZM5.86957 14.0217H0.978252V9.13035H5.86957V14.0217Z" fill="white"/>
<path d="M4.89133 10.1086H1.95654V13.0434H4.89133V10.1086Z" fill="white"/>
<path d="M10.1087 9.13035V8.1521H8.15222V14.9999H10.1087V14.0217H9.13047V12.0651H10.1087V11.0869H9.13047V9.13035H10.1087Z" fill="white"/>
<path d="M15 8.1521H14.0217V9.13035H15V8.1521Z" fill="white"/>
<path d="M14.0217 10.4348V14.0218H13.0435V15H15V10.4348H14.0217Z" fill="white"/>
<path d="M13.0434 8.1521H11.0869V9.13035H13.0434V8.1521Z" fill="white"/>
<path d="M13.0434 11.0869V10.1086H11.0869V13.0434H13.0434V12.0652H12.0652V11.0869H13.0434Z" fill="white"/>
<path d="M12.0652 14.0217H11.0869V15H12.0652V14.0217Z" fill="white"/>
</g>
<defs>
<clipPath id="clip0_2_117">
<rect width="15" height="15" fill="white"/>
</clipPath>
</defs>
</svg>
