<svg width="14" height="14" viewBox="0 0 14 14" fill="none" xmlns="http://www.w3.org/2000/svg">
<g clip-path="url(#clip0_2_156)">
<path fill-rule="evenodd" clip-rule="evenodd" d="M11.8631 0.0837798C12.149 -0.0116946 12.4559 -0.0256337 12.7494 0.0435287C13.0429 0.112719 13.3114 0.262342 13.5247 0.47561C13.738 0.688878 13.8876 0.957355 13.9568 1.25092C14.0259 1.54432 14.012 1.85118 13.9166 2.13711M13.9166 2.13711L10.3356 12.8901C10.248 13.1527 10.0946 13.3887 9.89024 13.5754C9.68589 13.7621 9.43721 13.8934 9.16783 13.957C8.89844 14.0205 8.61729 14.0142 8.35105 13.9385C8.08492 13.8629 7.84253 13.7205 7.64686 13.5249C7.64678 13.5248 7.64695 13.525 7.64686 13.5249L5.72394 11.6046L3.7078 12.6528C3.55068 12.7344 3.36208 12.7269 3.21196 12.633C3.06184 12.5391 2.9726 12.3727 2.97735 12.1957L3.06459 8.94548L0.474623 6.35268C0.279942 6.1569 0.138391 5.91472 0.0633422 5.64901C-0.0117064 5.38331 -0.0177734 5.10285 0.0457143 4.83415C0.109202 4.56545 0.240148 4.31737 0.426181 4.11335C0.612213 3.90933 0.84719 3.75611 1.10891 3.66817L1.11007 3.66778L11.8631 0.0837798M12.52 1.01686C12.4073 0.9903 12.2894 0.995666 12.1796 1.03236L1.42744 4.61608C1.42728 4.61614 1.42759 4.61603 1.42744 4.61608C1.32706 4.6499 1.23648 4.70887 1.16511 4.78714C1.09363 4.86553 1.04331 4.96085 1.01892 5.0641C0.994524 5.16734 0.996855 5.2751 1.02569 5.37719C1.05449 5.47917 1.10879 5.57212 1.18345 5.6473C1.18354 5.64739 1.18336 5.64721 1.18345 5.6473L3.92392 8.39077C4.02086 8.48781 4.07367 8.62042 4.06999 8.75754L3.99977 11.3739L5.58754 10.5485C5.78096 10.4479 6.01723 10.4843 6.17148 10.6383L8.35348 12.8173C8.42868 12.8925 8.5221 12.9475 8.6244 12.9766C8.7267 13.0057 8.83473 13.0081 8.93823 12.9837C9.04174 12.9593 9.13729 12.9088 9.21581 12.8371C9.29426 12.7654 9.35311 12.6749 9.38679 12.5741M9.38679 12.5741L12.9678 1.82114C13.0045 1.71134 13.01 1.59301 12.9834 1.48032C12.9569 1.36764 12.8994 1.26458 12.8176 1.18272C12.7357 1.10085 12.6327 1.04342 12.52 1.01686" fill="white"/>
<path fill-rule="evenodd" clip-rule="evenodd" d="M13.5051 0.461835C13.682 0.673943 13.6533 0.98923 13.4412 1.16605L3.89024 9.12805C3.67813 9.30487 3.36285 9.27626 3.18603 9.06415C3.00921 8.85205 3.03781 8.53676 3.24992 8.35994L12.8009 0.39794C13.013 0.221121 13.3283 0.249728 13.5051 0.461835Z" fill="white"/>
</g>
<defs>
<clipPath id="clip0_2_156">
<rect width="14" height="14" fill="white"/>
</clipPath>
</defs>
</svg>
